/* XPM */
static char * champ5_xpm[] = {
"32 32 13 1",
" 	c None",
".	c #FFFFFF",
"+	c #F9D6B6",
"@	c #7D4229",
"#	c #6B2F1D",
"$	c #531A15",
"%	c #B58050",
"&	c #955C39",
"*	c #351411",
"=	c #352514",
"-	c #594125",
";	c #8E683C",
">	c #A9865C",
"                                ",
"                                ",
"                                ",
"                                ",
"                                ",
"                                ",
"                                ",
"                                ",
"                                ",
"                                ",
"                                ",
"                                ",
"                                ",
"                                ",
"                                ",
"            ..++++++            ",
"           .+@@@@##$+           ",
"          .+##%.%&@$$+          ",
"         .+##&+%%&&@$$+         ",
"        .+##&&&&&&&@@$$+        ",
"        +$#@&%&&&&@@@#$*        ",
"       +$$@@@&&&&@@@$$$*        ",
"       +$@@@@@@@@@&$$#$*        ",
"       +$@@&@@@@@@#$$$**        ",
"       +$$@@@@@####$***         ",
"        + $$$$$$*****           ",
"             +=====             ",
"             +=-;-=             ",
"             +=;;;=             ",
"            +--;;;--            ",
"            +->>>>;-            ",
"            +->>>>>-            "};
