/* XPM */
static char * exit_open2_xpm[] = {
"42 42 11 1",
" 	c None",
".	c #8A223F",
"+	c #CCBB29",
"@	c #C89D76",
"#	c #C62955",
"$	c #AA7D55",
"%	c #946B47",
"&	c #DCAB7F",
"*	c #F9D6B6",
"=	c #798061",
"-	c #232715",
"                                          ",
"                                          ",
"                                          ",
"           .                              ",
"          .+.@    ..                      ",
"           . @  #$+.                      ",
"             @@#+#.                       ",
"               .#.         ...#           ",
"               @.           +#+.#         ",
"             $$@        # ..%.##+.        ",
"             $         #+# .%  ..         ",
"             &*******  %.%%%              ",
"            *&&@&@@$**%%   %%.            ",
"           *&&&&&@@$$$$     .+%  #        ",
"          **&&&&&@$$$$$*     .%%#+#       ",
"          *&&&&&%%%$$$$$*        #        ",
"         &&&&%%%%=====$%%*                ",
"         *&&&%%%%--===%%%%*               ",
"         ***@%%%-----==%%%%               ",
"        ****%%%-------==%%%*              ",
"        ****%%%--------==%%*              ",
"        ***@%%---------===%*              ",
"        ***@%%---------===%%*             ",
"        ***@%%---------===%%*             ",
"        ***%%%-----------=%%*             ",
"        ***%%%-----------=%%*             ",
"        @**%%%-----------=%%*             ",
"        @**%%%-----------=%%*             ",
"        @**%%%-----------=%%*             ",
"        ***%%%-=---------=%%*             ",
"        ***%=%-=---------=%%*             ",
"        ***%=%-=---------=%%*             ",
"        *#*%=%-==-------==%%*             ",
"        #+#%=%-==-------==%%*#            ",
"       .*#*%%%-====-----===%#+#           ",
"      .+.@*%%=-======---===%*#            ",
"       .*@*%%=-======---=====             ",
"         %%===-=======-   ==              ",
"          %==        =     =              ",
"           =                              ",
"                                          ",
"                                          "};
