/* XPM */
static char * exit_close_xpm[] = {
"42 42 12 1",
" 	c None",
".	c #8A223F",
"+	c #CCBB29",
"@	c #956341",
"#	c #C62955",
"$	c #7B522F",
"%	c #5B4123",
"&	c #AB7151",
"*	c #353C1F",
"=	c #232715",
"-	c #767D6F",
";	c #D1DACA",
"                                          ",
"                                          ",
"                                          ",
"           .                              ",
"          .+.@    ..                      ",
"           . @  #$+.                      ",
"             @@#+#.                       ",
"               .#.         ...#           ",
"               @.           +#+.#         ",
"             $$@        # ..%.##+.        ",
"             $         #+# .%  ..         ",
"             &&@@@@$$  %.%%%              ",
"            &&&@&@@$$$%%   %%.            ",
"           &&&&&&@@$$$$     .+%  #        ",
"          &&&&&&@@$$$$$$     .%%#+#       ",
"          &&&&&$%%%$$$$$%        #        ",
"         &&&@%%%%*****$%%%                ",
"         @&&&%%%%==***%%%%%               ",
"         @@@$%%%=====**%%%%               ",
"        @@@@%%%=======**%%%%              ",
"        @@@@%%%========**%%%              ",
"        @@@$%%=========***%%              ",
"        @@@$%%=========-**%%%             ",
"        @@@$%%=========-**%%%             ",
"        $@@%%-========-==*%%%             ",
"        $@@%%%-======-===-%%%             ",
"        $@@%%%--====-===-*%%%             ",
"        $@$%%%==---=-=--=*%%%             ",
"        $@$%%%=====;;;===*%%%             ",
"        @@$%%%====-;=;===*%%%             ",
"        @@$%*%===-=;;;===*%%%             ",
"        @@$%*%==-==;;;===*%%%             ",
"        @#$%*%==-=======**%%%             ",
"        #+#%*%--========**%%%#            ",
"       .@#@%%%==========***%#+#           ",
"      .+.$@%%*==========***%%#            ",
"       .@$@%%*==========*****             ",
"         %%***=========   **              ",
"          %**              *              ",
"           *                              ",
"                                          ",
"                                          "};
