/* XPM */
static char * exit_close6_xpm[] = {
"42 42 15 1",
" 	c None",
".	c #F8E2CD",
"+	c #EEBF95",
"@	c #E8A568",
"#	c #F9D6B6",
"$	c #854D1B",
"%	c #B6753B",
"&	c #946B45",
"*	c #43260C",
"=	c #232715",
"-	c #563A22",
";	c #755334",
">	c #C89D76",
",	c #868686",
"'	c #CCCCCC",
"                                          ",
"                                          ",
"                 ............             ",
"              ...+++++++++++..            ",
"            ...@@@#########++..           ",
"           ..@@@@+########++@@@.          ",
"         ..@@@@+#############@@@..        ",
"         .$@+@++#############++@%..       ",
"       ..$@++++############+++@@%$.       ",
"       .$@@++++++########+++@@@%%%..      ",
"     ..$$@@@@@@@++++++++++@@@@%%%%$.      ",
"     .$$%%%%%@+@@@@@@@@@@@@+%%%%%%$$..    ",
"   ..$$%%%%%%%%%%%%%%%%%%%%%%%%%%%%%$$... ",
"  ..$$%%%%%%%%%$$$$$%%%$$$$%%%%%%%%%%$$$..",
" ..$$$$%%%$$%%&***************%%%%%$$$$$$.",
".$$$$$$%%$$&****=============***%%$$$$$$$.",
".$$$$$$$$$***==================*****$$....",
"...$$$***$*=====================-;;*...   ",
"  ...**;;**=====================-;>&.     ",
"     .&>;-======================-&>&.     ",
"     .&>;-=====================,-&>&.     ",
"     .&>>-,===================,,->>&.     ",
"     .&>>-,,=================,,=->>&.     ",
"     .&>>-=,,===============,===->>&.     ",
"     .&>&-==,,=============,,===->>&.     ",
"     .>>&-===,,,==========,,====->>>.     ",
"     .>>&-====,,,========,,=====->>>.     ",
"     .>>&-======,,,,===,,,======->>>.     ",
"     .&>&-========,,,,,,,=======-&>>.     ",
"     .&>&-=======,,''''',,======-&>>.     ",
"     .&>&-======,,''''''',,,,,==-&>&.     ",
"     .&&&-===,,,,,'''='''===,,,,-&>&.     ",
"     .;&&-,,,,===='''='''=======-&>&.     ",
"     .;&&-,======='''='''======--&>&.     ",
"     .;&&-========'''''''======-;&>&.     ",
"    ..;&;&-======='''''''======-;&&&.     ",
"    .;&>&&-======='''''''=====--&&&;..    ",
"     ;&;&&&-==================-&&&;&;.    ",
"     ;;;;&&--================--&&;;;;.    ",
"       ;;;;;-                -&&;;    .   ",
"                             -&&;         ",
"                                          "};
