/* XPM */
static char * tile_ground_xpm[] = {
"42 42 7 1",
" 	c None",
".	c #744B25",
"+	c #83592D",
"@	c #9A6A36",
"#	c #55311B",
"$	c #653C1F",
"%	c #432417",
"                                          ",
"                                          ",
"                                          ",
"                                          ",
"                                          ",
"  ..+@@@@@@@@.+@@@@@@@++@@++@@@@@@+.#     ",
" ...@@@@@@@@@+@@@@@@@@@++++@@@@@@@@+#$..  ",
"$...+@@@@@@@+++@@@@@@@++...@@@@@@@@+$$$.. ",
"$$.$+++..$$$$$..++++.$$$$$..+@@@@@++$$$.. ",
"$$$$$$$$............$$$$$...$........$$.. ",
"$$$####$$$........$$$$$......$...$##$$$%% ",
"$$####..$....................$...$$#$$%%%%",
"####$$..$........................$$###%%%%",
" ####$..$...........$$$.....$...$$###%%%%%",
"  %%%$$$##$........$$$...$$$###%%%%%%%%%% ",
"   %%#$$$$$$........$$$####%%%%%%%%%%#%%  ",
"   #####.++++++........$$$$$$##%%%%%####% ",
"  #$$$$.+++++++++.......$$$$$$%%%%#$$$##%%",
"  $$$$..+++++++++.......$$$$$$%%%%$$$$$#%%",
"  $$$$..+++++++++......$$$#%%%%%%%$$$$$#%%",
"  #$$$$$$..++++....$$#####%%%%%%%%#$$$$%%%",
"  ###$$$$$$$$$#%%%%#####$$$$$$###%##$$%%% ",
"   #%%%%%%%%%%%%%##$$.....++...$$$##%%%%  ",
"   $$$##%%%#$$....++++....++....$$$$$$##% ",
" ..$$$#$$$$.....++++++++.........$$$$$### ",
"....$$$$$$.....++++++++++........$$$$$$###",
".......$$$......+++++++++.......$$..$$$%%%",
"........$$$.....++++++++.....$#%%....$#%%%",
".......$###$$.....+++++..$$##%%%%....#%%%%",
" ...$#%%##$$$$$.....$$#####%%%%%%$..$%%%% ",
"  ##%%%###$$$$$$$$$$$$$$$$$%%%%%%%%%%%%%  ",
"   %#######$$$$$$$$$$$$$$$$%%%%%%%%%###%  ",
"  ++$$....+++++$$$....$$$$$$$$$####$..$%  ",
" +++.....+++++++$......$$$......#$$....$  ",
" +++.....+++++++$.......$$.......$$....$  ",
" ++......++++++$$.......$$.......$$....   ",
"  $.........+++$........$##.....#%$...    ",
"   #$$........$$....$$#######..#%%##$     ",
"     $$....$$$......###$$$####%%###       ",
"      ......$........%$$$$$####%##        ",
"      ......$........ $$$$$####           ",
"       ....   ......   $$$###             "};
