/* XPM */
static char * tile_wall_xpm[] = {
"42 42 6 1",
" 	c None",
".	c #83592D",
"+	c #744B25",
"@	c #653C1F",
"#	c #55311B",
"$	c #432417",
"                                          ",
"           .....  +++++     ++++          ",
"         .......@+++++++@ +++++++         ",
"       ++......@@+++++++@@+++++++         ",
"     +++++++...@++++++++@##+++++#$        ",
"     @++++++++@@++++@@#######++#$$#       ",
"  ++###@@@@@@@@@@######$$$$$##$$$$###     ",
" +++#@+++@@@@@@@@@###$$$$$$$$$$$$####@++  ",
"@+++#+++++@@@@@@+++++++@@###$$$$$$$#@@@++ ",
"@@+@##+++@@@++++++++++++++@@@@@@@@##@@@++ ",
"@@@####@@@+++++++++++++++++++@+++@##@@@$$ ",
"@@####++@++++++++++++++++++++@+++@@#@@$$$$",
"####@@++@++++++++++++++++++++++++@@###$$$$",
" ####@++@+++++++++++@@@+++++@+++@@###$$$$$",
"  $$$@@@##@++++++++@@@+++@@@###$$$$$$$$$$ ",
"   $$#@@@@@@++++++++@@@####$$$$$$$$$$#$$  ",
"   #####+......++++++++@@@@@@##$$$$$####$ ",
"  #@@@@+.........+++++++@@@@@@$$$$#@@@##$$",
"  @@@@++.........+++++++@@@@@@$$$$@@@@@#$$",
"  @@@@++.........++++++@@@#$$$$$$$@@@@@#$$",
"  #@@@@@@++....++++@@#####$$$$$$$$#@@@@$$$",
"  ###@@@@@@@@@#$$$$#####@@@@@@###$##@@$$$ ",
"   #$$$$$$$$$$$$$##@@+++++..+++@@@##$$$$  ",
"   @@@##$$$#@@++++....++++..++++@@@@@@##$ ",
" ++@@@#@@@@+++++........+++++++++@@@@@### ",
"++++@@@@@@+++++..........++++++++@@@@@@###",
"+++++++@@@++++++.........+++++++@@++@@@$$$",
"++++++++@@@+++++........+++++@#$$++++@#$$$",
"+++++++@###@@+++++.....++@@##$$$$++++#$$$$",
" +++@#$$##@@@@@+++++@@#####$$$$$$@++@$$$$ ",
"  ##$$$###@@@@@@@@@@@@@@@@@$$$$$$$$$$$$$  ",
"   $#######@@@@@@@@@@@@@@@@$$$$$$$$$###$  ",
"  ..@@++++.....@@@++++@@@@@@@@@####@++@$  ",
" ...+++++.......@++++++@@@++++++#@@++++@  ",
" ...+++++.......@+++++++@@+++++++@@++++@  ",
" ..++++++......@@+++++++@@+++++++@@++++   ",
"  @+++++++++...@++++++++@##+++++#$@+++    ",
"   #@@++++++++@@++++@@#######++#$$##@     ",
"     @@++++@@@++++++###@@@####$$###       ",
"      ++++++@++++++++$@@@@@####$##        ",
"      ++++++@++++++++ @@@@@####           ",
"       ++++   ++++++   @@@###             "};
