/* XPM */
static char * victory_xpm[] = {
"96 32 19 1",
" 	c None",
".	c #FAD6B6",
"+	c #F9D6B6",
"@	c #F9D7B6",
"#	c #F9D6B7",
"$	c #F9D5B6",
"%	c #F8D6B6",
"&	c #FAD5B7",
"*	c #F8D6B5",
"=	c #F9D6B5",
"-	c #FAD5B6",
";	c #FAD6B5",
">	c #FAD6B7",
",	c #F9D5B5",
"'	c #F8D7B5",
")	c #F8D6B7",
"!	c #F9D7B7",
"~	c #FAD7B6",
"{	c #FAD7B5",
"                                                                                                ",
"                                                                                                ",
"                                                                                                ",
"                                                                                                ",
"                                                                                                ",
"                                                                                                ",
"                                                                                                ",
"                                                                                                ",
"                                                                                                ",
".+++       +++  +++      @#++++. .++++++++++++    +++++$      ++++++%&   ++++      +++*  +++    ",
" +++      ++++  +++    $++++++++..++++++++++++  =++++++++%    +++++++++=  +++@    ++++   +++    ",
" +++-     =++@  +++   ;+++@     +     +++      $+++    ++++   +++   $+++  .+++   ;+++    +++    ",
" +++%     +++   +++   +++=            +++      +++      +++   +++    +++   =+++  +++@    +++    ",
"  +++    >+++   +++  =+++             +++     ++++      ,+++  +++    +++    +++>++++     +++    ",
"  +++@   %++'   +++  +++@             +++     %++*      *+++  +++    +++    )++++++      +++    ",
"  ,+++   +++    +++  +++@             +++     +++@      =+++  +++   $+++     +++++!      ++%    ",
"   +++  @+++    +++  +++@             +++     +++#      =+++  ++++++++@       ++++       +++    ",
"   #+++ +++!    +++  +++@             +++     %++*      *+++  ++++++++.       ~++$       ++$    ",
"    +++ +++     +++  ++++             +++     ++++      ,+++  +++   ++++      .++$       %+%    ",
"    ++++++%     +++   +++=            +++      +++      +++   +++    +++      .++$              ",
"    ++++++      +++   {+++@     *     +++      $+++    +++#   +++    +++~     .++$       +++    ",
"     +++++      +++    @++++++++.     +++       +++++++++*    +++     +++     .++$       +++    ",
"     ++++@      +++      &+++.+.      +++         #$++@=      +++     ++++    .++$       +++    ",
"                                                                                                ",
"                                                                                                ",
"                                                                                                ",
"                                                                                                ",
"                                                                                                ",
"                                                                                                ",
"                                                                                                ",
"                                                                                                ",
"                                                                                                "};
